<?xml version="1.0" standalone="no"?>
<!DOCTYPE svg PUBLIC "-//W3C//DTD SVG 20010904//EN" "http://www.w3.org/TR/2001/REC-SVG-20010904/DTD/svg10.dtd">
<svg version="1.0" xmlns="http://www.w3.org/2000/svg" width="370.000000pt" height="151.000000pt" viewBox="0 0 370.000000 151.000000" preserveAspectRatio="xMidYMid meet">
    <g transform="translate(0.000000,151.000000) scale(0.100000,-0.100000)" fill="#000000" stroke="none">
        <path d="M1094 1499 c-4 -7 144 -162 360 -378 l366 -366 -365 -365 c-201 -201 -365 -368 -365 -373 0 -4 7 -10 16 -14 12 -4 117 95 380 358 l364 364 363 -363 c199 -199 367 -362 374 -362 6 0 15 5 19 11 4 7 -144 162 -360 378 l-366 366 365 365 c201 201 365 368 365 371 0 4 -8 10 -17 13 -13 5 -105 -81 -380 -356 l-363 -363 -363 363 c-200 199 -369 362 -375 362 -6 0 -14 -5 -18 -11z"/>
        <path d="M2500 740 l0 -250 35 0 35 0 0 115 0 115 160 0 160 0 0 -115 0 -115 35 0 35 0 0 250 0 250 -35 0 -35 0 0 -100 0 -100 -160 0 -160 0 0 100 0 100 -35 0 -35 0 0 -250z"/>
        <path d="M670 945 l0 -35 90 0 90 0 0 -210 0 -210 40 0 40 0 0 210 0 210 95 0 95 0 0 35 0 35 -225 0 -225 0 0 -35z"/>
        <path d="M3 838 c3 -13 15 -46 28 -75 l22 -51 -26 -62 c-15 -34 -27 -66 -27 -71 0 -5 64 -9 150 -9 l150 0 0 145 0 145 -151 0 -151 0 5 -22z"/>
        <path d="M3400 715 l0 -145 150 0 c83 0 150 4 150 9 0 5 -13 38 -28 73 l-29 63 29 60 c15 33 28 66 28 73 0 9 -37 12 -150 12 l-150 0 0 -145z"/>
    </g>
</svg>